<mxfile host="app.diagrams.net" modified="2021-07-31T02:05:35.784Z" agent="5.0 (Windows NT 10.0; Win64; x64) AppleWebKit/537.36 (KHTML, like Gecko) Chrome/92.0.4515.107 Safari/537.36 Edg/92.0.902.62" etag="-z-05asayeSYM8mE6mak" version="14.8.0" type="github">
  <diagram id="WgU9N0Nm7C7qRSSYOQwp" name="Page-1">
    <mxGraphModel dx="1422" dy="834" grid="1" gridSize="10" guides="1" tooltips="1" connect="1" arrows="1" fold="1" page="1" pageScale="1" pageWidth="3300" pageHeight="4681" math="0" shadow="0">
      <root>
        <mxCell id="0" />
        <mxCell id="1" parent="0" />
        <mxCell id="gzrYZWxSxminhEm58kiy-1" value="&lt;b&gt;&lt;font style=&quot;font-size: 20px&quot;&gt;实际设备&lt;/font&gt;&lt;/b&gt;" style="rounded=1;whiteSpace=wrap;html=1;fontFamily=JetBrainsMono-Bold;strokeWidth=2;" vertex="1" parent="1">
          <mxGeometry x="170" y="210" width="120" height="60" as="geometry" />
        </mxCell>
        <mxCell id="gzrYZWxSxminhEm58kiy-2" value="" style="rounded=1;whiteSpace=wrap;html=1;fontFamily=JetBrainsMono-Bold;strokeWidth=2;" vertex="1" parent="1">
          <mxGeometry x="160" y="335" width="370" height="210" as="geometry" />
        </mxCell>
        <mxCell id="gzrYZWxSxminhEm58kiy-3" value="&lt;b&gt;&lt;font style=&quot;font-size: 18px&quot;&gt;TCP&lt;/font&gt;&lt;/b&gt;" style="rounded=1;whiteSpace=wrap;html=1;fontFamily=JetBrainsMono-Bold;strokeWidth=2;" vertex="1" parent="1">
          <mxGeometry x="180" y="485" width="60" height="40" as="geometry" />
        </mxCell>
        <mxCell id="gzrYZWxSxminhEm58kiy-4" value="&lt;b&gt;&lt;font style=&quot;font-size: 18px&quot;&gt;HTTP&lt;/font&gt;&lt;/b&gt;" style="rounded=1;whiteSpace=wrap;html=1;fontFamily=JetBrainsMono-Bold;strokeWidth=2;" vertex="1" parent="1">
          <mxGeometry x="260" y="485" width="60" height="40" as="geometry" />
        </mxCell>
        <mxCell id="gzrYZWxSxminhEm58kiy-5" value="&lt;b&gt;&lt;font style=&quot;font-size: 18px&quot;&gt;Modbus&lt;/font&gt;&lt;/b&gt;" style="rounded=1;whiteSpace=wrap;html=1;fontFamily=JetBrainsMono-Bold;strokeWidth=2;" vertex="1" parent="1">
          <mxGeometry x="430" y="485" width="80" height="40" as="geometry" />
        </mxCell>
        <mxCell id="gzrYZWxSxminhEm58kiy-6" value="&lt;span style=&quot;font-size: 18px&quot;&gt;&lt;b&gt;Mqtt&lt;/b&gt;&lt;/span&gt;" style="rounded=1;whiteSpace=wrap;html=1;fontFamily=JetBrainsMono-Bold;strokeWidth=2;" vertex="1" parent="1">
          <mxGeometry x="340" y="485" width="70" height="40" as="geometry" />
        </mxCell>
        <mxCell id="gzrYZWxSxminhEm58kiy-7" value="&lt;span style=&quot;font-size: 20px&quot;&gt;&lt;font style=&quot;font-size: 20px&quot;&gt;网络组件管理&lt;/font&gt;&lt;/span&gt;" style="text;html=1;align=center;verticalAlign=middle;resizable=0;points=[];autosize=1;strokeColor=none;fontSize=20;fontStyle=1;strokeWidth=2;" vertex="1" parent="1">
          <mxGeometry x="270" y="345" width="140" height="30" as="geometry" />
        </mxCell>
        <mxCell id="gzrYZWxSxminhEm58kiy-8" value="" style="rounded=1;whiteSpace=wrap;html=1;fontFamily=JetBrainsMono-Bold;strokeWidth=2;" vertex="1" parent="1">
          <mxGeometry x="875" y="1325" width="330" height="237.5" as="geometry" />
        </mxCell>
        <mxCell id="gzrYZWxSxminhEm58kiy-12" value="&lt;span style=&quot;font-size: 18px&quot;&gt;&lt;b&gt;编码&lt;/b&gt;&lt;/span&gt;" style="rounded=1;whiteSpace=wrap;html=1;fontFamily=JetBrainsMono-Bold;strokeWidth=2;" vertex="1" parent="1">
          <mxGeometry x="975" y="1502.5" width="80" height="48.75" as="geometry" />
        </mxCell>
        <mxCell id="gzrYZWxSxminhEm58kiy-13" value="&lt;span style=&quot;font-size: 20px&quot;&gt;&lt;font style=&quot;font-size: 20px&quot;&gt;消息协议管理&lt;/font&gt;&lt;/span&gt;" style="text;html=1;align=center;verticalAlign=middle;resizable=0;points=[];autosize=1;strokeColor=none;fontSize=20;fontStyle=1;strokeWidth=2;" vertex="1" parent="1">
          <mxGeometry x="970" y="1332.5" width="140" height="30" as="geometry" />
        </mxCell>
        <mxCell id="gzrYZWxSxminhEm58kiy-14" value="" style="rounded=1;whiteSpace=wrap;html=1;fontFamily=JetBrainsMono-Bold;strokeWidth=2;" vertex="1" parent="1">
          <mxGeometry x="290" y="560" width="360" height="240" as="geometry" />
        </mxCell>
        <mxCell id="gzrYZWxSxminhEm58kiy-20" style="edgeStyle=orthogonalEdgeStyle;curved=0;rounded=1;sketch=0;orthogonalLoop=1;jettySize=auto;html=1;exitX=1;exitY=0.5;exitDx=0;exitDy=0;entryX=0;entryY=0.5;entryDx=0;entryDy=0;fontSize=20;strokeWidth=2;" edge="1" parent="1" source="gzrYZWxSxminhEm58kiy-15" target="gzrYZWxSxminhEm58kiy-16">
          <mxGeometry relative="1" as="geometry" />
        </mxCell>
        <mxCell id="gzrYZWxSxminhEm58kiy-15" value="&lt;b&gt;&lt;font style=&quot;font-size: 18px&quot;&gt;创建产品&lt;/font&gt;&lt;/b&gt;" style="rounded=1;whiteSpace=wrap;html=1;fontFamily=JetBrainsMono-Bold;strokeWidth=2;" vertex="1" parent="1">
          <mxGeometry x="300" y="625" width="120" height="60" as="geometry" />
        </mxCell>
        <mxCell id="gzrYZWxSxminhEm58kiy-23" style="edgeStyle=orthogonalEdgeStyle;curved=0;rounded=1;sketch=0;orthogonalLoop=1;jettySize=auto;html=1;exitX=0.5;exitY=1;exitDx=0;exitDy=0;entryX=0.5;entryY=0;entryDx=0;entryDy=0;fontSize=17;strokeWidth=2;" edge="1" parent="1" source="gzrYZWxSxminhEm58kiy-16" target="gzrYZWxSxminhEm58kiy-17">
          <mxGeometry relative="1" as="geometry" />
        </mxCell>
        <mxCell id="gzrYZWxSxminhEm58kiy-25" style="edgeStyle=orthogonalEdgeStyle;curved=0;rounded=1;sketch=0;orthogonalLoop=1;jettySize=auto;html=1;exitX=0.5;exitY=1;exitDx=0;exitDy=0;fontSize=17;strokeWidth=2;" edge="1" parent="1" source="gzrYZWxSxminhEm58kiy-16" target="gzrYZWxSxminhEm58kiy-18">
          <mxGeometry relative="1" as="geometry">
            <Array as="points">
              <mxPoint x="550" y="710" />
              <mxPoint x="410" y="710" />
            </Array>
          </mxGeometry>
        </mxCell>
        <mxCell id="gzrYZWxSxminhEm58kiy-16" value="&lt;b&gt;&lt;font style=&quot;font-size: 18px&quot;&gt;配置物模型&lt;/font&gt;&lt;/b&gt;" style="rounded=1;whiteSpace=wrap;html=1;fontFamily=JetBrainsMono-Bold;align=center;horizontal=1;verticalAlign=top;strokeWidth=2;" vertex="1" parent="1">
          <mxGeometry x="460" y="610" width="180" height="90" as="geometry" />
        </mxCell>
        <mxCell id="gzrYZWxSxminhEm58kiy-17" value="&lt;b&gt;&lt;font style=&quot;font-size: 18px&quot;&gt;应用配置&lt;/font&gt;&lt;/b&gt;" style="rounded=1;whiteSpace=wrap;html=1;fontFamily=JetBrainsMono-Bold;strokeWidth=2;" vertex="1" parent="1">
          <mxGeometry x="490" y="730" width="120" height="60" as="geometry" />
        </mxCell>
        <mxCell id="gzrYZWxSxminhEm58kiy-18" value="&lt;span style=&quot;font-size: 18px&quot;&gt;&lt;b&gt;发布&lt;/b&gt;&lt;/span&gt;" style="rounded=1;whiteSpace=wrap;html=1;fontFamily=JetBrainsMono-Bold;strokeWidth=2;" vertex="1" parent="1">
          <mxGeometry x="350" y="730" width="120" height="60" as="geometry" />
        </mxCell>
        <mxCell id="gzrYZWxSxminhEm58kiy-19" value="&lt;b&gt;&lt;font style=&quot;font-size: 18px&quot;&gt;设备产品管理&lt;/font&gt;&lt;/b&gt;" style="text;html=1;align=center;verticalAlign=middle;resizable=0;points=[];autosize=1;strokeColor=none;strokeWidth=2;" vertex="1" parent="1">
          <mxGeometry x="410" y="575" width="120" height="20" as="geometry" />
        </mxCell>
        <mxCell id="gzrYZWxSxminhEm58kiy-21" value="&lt;span style=&quot;font-size: 17px;&quot;&gt;&lt;font style=&quot;font-size: 17px;&quot;&gt;属性定义&lt;/font&gt;&lt;/span&gt;" style="rounded=1;whiteSpace=wrap;html=1;fontFamily=JetBrainsMono-Bold;fontSize=17;fontStyle=1;strokeWidth=2;" vertex="1" parent="1">
          <mxGeometry x="470" y="650" width="70" height="40" as="geometry" />
        </mxCell>
        <mxCell id="gzrYZWxSxminhEm58kiy-22" value="&lt;span style=&quot;font-size: 17px;&quot;&gt;&lt;font style=&quot;font-size: 17px;&quot;&gt;功能定义&lt;/font&gt;&lt;/span&gt;" style="rounded=1;whiteSpace=wrap;html=1;fontFamily=JetBrainsMono-Bold;fontSize=17;fontStyle=1;strokeWidth=2;" vertex="1" parent="1">
          <mxGeometry x="560" y="650" width="70" height="40" as="geometry" />
        </mxCell>
        <mxCell id="gzrYZWxSxminhEm58kiy-26" value="" style="rounded=1;whiteSpace=wrap;html=1;fontFamily=JetBrainsMono-Bold;strokeWidth=2;" vertex="1" parent="1">
          <mxGeometry x="760" y="572.5" width="320" height="297.5" as="geometry" />
        </mxCell>
        <mxCell id="gzrYZWxSxminhEm58kiy-43" value="" style="edgeStyle=orthogonalEdgeStyle;curved=0;rounded=1;sketch=0;orthogonalLoop=1;jettySize=auto;html=1;fontSize=17;strokeWidth=2;" edge="1" parent="1" source="gzrYZWxSxminhEm58kiy-28" target="gzrYZWxSxminhEm58kiy-32">
          <mxGeometry relative="1" as="geometry" />
        </mxCell>
        <mxCell id="gzrYZWxSxminhEm58kiy-28" value="&lt;span style=&quot;font-size: 18px&quot;&gt;&lt;b&gt;添加设备&lt;/b&gt;&lt;/span&gt;" style="rounded=1;whiteSpace=wrap;html=1;fontFamily=JetBrainsMono-Bold;strokeWidth=2;" vertex="1" parent="1">
          <mxGeometry x="780" y="617.5" width="120" height="60" as="geometry" />
        </mxCell>
        <mxCell id="gzrYZWxSxminhEm58kiy-44" style="edgeStyle=orthogonalEdgeStyle;curved=0;rounded=1;sketch=0;orthogonalLoop=1;jettySize=auto;html=1;exitX=0.5;exitY=1;exitDx=0;exitDy=0;entryX=0.5;entryY=0;entryDx=0;entryDy=0;fontSize=17;strokeWidth=2;" edge="1" parent="1" source="gzrYZWxSxminhEm58kiy-32" target="gzrYZWxSxminhEm58kiy-33">
          <mxGeometry relative="1" as="geometry" />
        </mxCell>
        <mxCell id="gzrYZWxSxminhEm58kiy-45" style="edgeStyle=orthogonalEdgeStyle;curved=0;rounded=1;sketch=0;orthogonalLoop=1;jettySize=auto;html=1;exitX=0.5;exitY=1;exitDx=0;exitDy=0;entryX=0.5;entryY=0;entryDx=0;entryDy=0;fontSize=17;strokeWidth=2;" edge="1" parent="1" source="gzrYZWxSxminhEm58kiy-32" target="gzrYZWxSxminhEm58kiy-40">
          <mxGeometry relative="1" as="geometry">
            <Array as="points">
              <mxPoint x="1010" y="770" />
              <mxPoint x="840" y="770" />
            </Array>
          </mxGeometry>
        </mxCell>
        <mxCell id="gzrYZWxSxminhEm58kiy-32" value="&lt;b&gt;&lt;font style=&quot;font-size: 18px&quot;&gt;设备激活&lt;/font&gt;&lt;/b&gt;" style="rounded=1;whiteSpace=wrap;html=1;fontFamily=JetBrainsMono-Bold;strokeWidth=2;" vertex="1" parent="1">
          <mxGeometry x="950" y="660" width="120" height="60" as="geometry" />
        </mxCell>
        <mxCell id="gzrYZWxSxminhEm58kiy-33" value="&lt;span style=&quot;font-size: 18px&quot;&gt;&lt;b&gt;运行状态&lt;/b&gt;&lt;/span&gt;" style="rounded=1;whiteSpace=wrap;html=1;fontFamily=JetBrainsMono-Bold;strokeWidth=2;" vertex="1" parent="1">
          <mxGeometry x="950" y="790" width="120" height="60" as="geometry" />
        </mxCell>
        <mxCell id="gzrYZWxSxminhEm58kiy-34" value="&lt;b&gt;&lt;font style=&quot;font-size: 18px&quot;&gt;设备管理&lt;/font&gt;&lt;/b&gt;" style="text;html=1;align=center;verticalAlign=middle;resizable=0;points=[];autosize=1;strokeColor=none;strokeWidth=2;" vertex="1" parent="1">
          <mxGeometry x="875" y="587.5" width="90" height="20" as="geometry" />
        </mxCell>
        <mxCell id="gzrYZWxSxminhEm58kiy-40" value="&lt;span style=&quot;font-size: 18px&quot;&gt;&lt;b&gt;执行动作&lt;/b&gt;&lt;/span&gt;" style="rounded=1;whiteSpace=wrap;html=1;fontFamily=JetBrainsMono-Bold;strokeWidth=2;" vertex="1" parent="1">
          <mxGeometry x="780" y="790" width="120" height="60" as="geometry" />
        </mxCell>
        <mxCell id="gzrYZWxSxminhEm58kiy-100" style="edgeStyle=orthogonalEdgeStyle;curved=0;rounded=1;sketch=0;orthogonalLoop=1;jettySize=auto;html=1;exitX=1;exitY=0.5;exitDx=0;exitDy=0;fontSize=16;strokeWidth=2;" edge="1" parent="1" source="gzrYZWxSxminhEm58kiy-57">
          <mxGeometry relative="1" as="geometry">
            <mxPoint x="730" y="1429" as="targetPoint" />
          </mxGeometry>
        </mxCell>
        <mxCell id="gzrYZWxSxminhEm58kiy-57" value="" style="rounded=1;whiteSpace=wrap;html=1;fontFamily=JetBrainsMono-Bold;strokeWidth=2;fillColor=#f5f5f5;strokeColor=#666666;fontColor=#333333;" vertex="1" parent="1">
          <mxGeometry x="410" y="1363.75" width="280" height="130" as="geometry" />
        </mxCell>
        <mxCell id="gzrYZWxSxminhEm58kiy-58" value="&lt;b style=&quot;font-size: 18px&quot;&gt;编码&lt;/b&gt;" style="rounded=1;whiteSpace=wrap;html=1;fontFamily=JetBrainsMono-Bold;strokeWidth=2;fillColor=#d0cee2;strokeColor=#56517e;" vertex="1" parent="1">
          <mxGeometry x="560" y="1413.75" width="120" height="60" as="geometry" />
        </mxCell>
        <mxCell id="gzrYZWxSxminhEm58kiy-59" value="&lt;b style=&quot;font-size: 18px&quot;&gt;解码&lt;/b&gt;" style="rounded=1;whiteSpace=wrap;html=1;fontFamily=JetBrainsMono-Bold;strokeWidth=2;fillColor=#d0cee2;strokeColor=#56517e;" vertex="1" parent="1">
          <mxGeometry x="420" y="1413.75" width="120" height="60" as="geometry" />
        </mxCell>
        <mxCell id="gzrYZWxSxminhEm58kiy-60" value="&lt;b style=&quot;font-size: 12px&quot;&gt;&lt;font style=&quot;font-size: 18px&quot;&gt;消息协议包&lt;/font&gt;&lt;/b&gt;" style="text;html=1;align=center;verticalAlign=middle;resizable=0;points=[];autosize=1;strokeColor=none;fontSize=20;fontStyle=1;strokeWidth=2;" vertex="1" parent="1">
          <mxGeometry x="495" y="1368.75" width="110" height="30" as="geometry" />
        </mxCell>
        <mxCell id="gzrYZWxSxminhEm58kiy-62" value="&lt;span style=&quot;color: rgb(0 , 0 , 0) ; font-size: 16px&quot;&gt;1、开发协议包&lt;/span&gt;&lt;br style=&quot;color: rgb(0 , 0 , 0) ; font-size: 16px&quot;&gt;&lt;span style=&quot;color: rgb(0 , 0 , 0) ; font-size: 16px&quot;&gt;2、上传协议包&lt;br&gt;3、创建网络组件&lt;/span&gt;&lt;br style=&quot;color: rgb(0 , 0 , 0) ; font-size: 16px&quot;&gt;&lt;div style=&quot;color: rgb(0 , 0 , 0) ; font-size: 16px&quot;&gt;4、创建产品分类&lt;/div&gt;&lt;div style=&quot;color: rgb(0 , 0 , 0) ; font-size: 16px&quot;&gt;5、创建产品信息&lt;/div&gt;&lt;div style=&quot;color: rgb(0 , 0 , 0) ; font-size: 16px&quot;&gt;6、添加设备&lt;/div&gt;&lt;div style=&quot;color: rgb(0 , 0 , 0) ; font-size: 16px&quot;&gt;7、设备网关绑定&lt;/div&gt;" style="shape=note;strokeWidth=2;fontSize=16;size=20;whiteSpace=wrap;html=1;fillColor=#fff2cc;strokeColor=#d6b656;fontColor=#666600;rounded=0;sketch=0;align=left;verticalAlign=top;fontStyle=0" vertex="1" parent="1">
          <mxGeometry x="420" y="70" width="290" height="160" as="geometry" />
        </mxCell>
        <mxCell id="gzrYZWxSxminhEm58kiy-64" style="edgeStyle=orthogonalEdgeStyle;curved=0;rounded=1;sketch=0;orthogonalLoop=1;jettySize=auto;html=1;exitX=1;exitY=0.5;exitDx=0;exitDy=0;entryX=0;entryY=0.5;entryDx=0;entryDy=0;fontSize=16;strokeWidth=2;" edge="1" parent="1" source="gzrYZWxSxminhEm58kiy-63" target="gzrYZWxSxminhEm58kiy-32">
          <mxGeometry relative="1" as="geometry" />
        </mxCell>
        <mxCell id="gzrYZWxSxminhEm58kiy-63" value="&lt;span style=&quot;font-size: 18px&quot;&gt;&lt;b&gt;更新设备&lt;/b&gt;&lt;/span&gt;" style="rounded=1;whiteSpace=wrap;html=1;fontFamily=JetBrainsMono-Bold;strokeWidth=2;" vertex="1" parent="1">
          <mxGeometry x="780" y="690" width="120" height="60" as="geometry" />
        </mxCell>
        <mxCell id="gzrYZWxSxminhEm58kiy-67" style="edgeStyle=orthogonalEdgeStyle;curved=0;rounded=1;sketch=0;orthogonalLoop=1;jettySize=auto;html=1;exitX=0.5;exitY=1;exitDx=0;exitDy=0;fontSize=16;strokeWidth=2;" edge="1" parent="1" source="gzrYZWxSxminhEm58kiy-65" target="gzrYZWxSxminhEm58kiy-3">
          <mxGeometry relative="1" as="geometry" />
        </mxCell>
        <mxCell id="gzrYZWxSxminhEm58kiy-68" style="edgeStyle=orthogonalEdgeStyle;curved=0;rounded=1;sketch=0;orthogonalLoop=1;jettySize=auto;html=1;exitX=0.5;exitY=1;exitDx=0;exitDy=0;entryX=0.5;entryY=0;entryDx=0;entryDy=0;fontSize=16;strokeWidth=2;" edge="1" parent="1" source="gzrYZWxSxminhEm58kiy-65" target="gzrYZWxSxminhEm58kiy-4">
          <mxGeometry relative="1" as="geometry" />
        </mxCell>
        <mxCell id="gzrYZWxSxminhEm58kiy-69" style="edgeStyle=orthogonalEdgeStyle;curved=0;rounded=1;sketch=0;orthogonalLoop=1;jettySize=auto;html=1;exitX=0.5;exitY=1;exitDx=0;exitDy=0;entryX=0.5;entryY=0;entryDx=0;entryDy=0;fontSize=16;strokeWidth=2;" edge="1" parent="1" source="gzrYZWxSxminhEm58kiy-65" target="gzrYZWxSxminhEm58kiy-6">
          <mxGeometry relative="1" as="geometry" />
        </mxCell>
        <mxCell id="gzrYZWxSxminhEm58kiy-70" style="edgeStyle=orthogonalEdgeStyle;curved=0;rounded=1;sketch=0;orthogonalLoop=1;jettySize=auto;html=1;exitX=0.5;exitY=1;exitDx=0;exitDy=0;fontSize=16;strokeWidth=2;" edge="1" parent="1" source="gzrYZWxSxminhEm58kiy-65" target="gzrYZWxSxminhEm58kiy-5">
          <mxGeometry relative="1" as="geometry" />
        </mxCell>
        <mxCell id="gzrYZWxSxminhEm58kiy-65" value="&lt;b style=&quot;font-size: 18px&quot;&gt;创建网络组件&lt;/b&gt;" style="rounded=1;whiteSpace=wrap;html=1;fontFamily=JetBrainsMono-Bold;strokeWidth=2;" vertex="1" parent="1">
          <mxGeometry x="280" y="385" width="120" height="50" as="geometry" />
        </mxCell>
        <mxCell id="gzrYZWxSxminhEm58kiy-71" value="" style="rounded=1;whiteSpace=wrap;html=1;fontFamily=JetBrainsMono-Bold;strokeWidth=2;" vertex="1" parent="1">
          <mxGeometry x="70" y="900" width="280" height="130" as="geometry" />
        </mxCell>
        <mxCell id="gzrYZWxSxminhEm58kiy-72" value="&lt;b&gt;&lt;font style=&quot;font-size: 18px&quot;&gt;更新分类&lt;/font&gt;&lt;/b&gt;" style="rounded=1;whiteSpace=wrap;html=1;fontFamily=JetBrainsMono-Bold;strokeWidth=2;" vertex="1" parent="1">
          <mxGeometry x="220" y="950" width="120" height="60" as="geometry" />
        </mxCell>
        <mxCell id="gzrYZWxSxminhEm58kiy-73" value="&lt;span style=&quot;font-size: 18px&quot;&gt;&lt;b&gt;创建分类&lt;/b&gt;&lt;/span&gt;" style="rounded=1;whiteSpace=wrap;html=1;fontFamily=JetBrainsMono-Bold;strokeWidth=2;" vertex="1" parent="1">
          <mxGeometry x="80" y="950" width="120" height="60" as="geometry" />
        </mxCell>
        <mxCell id="gzrYZWxSxminhEm58kiy-74" value="&lt;span style=&quot;font-size: 20px&quot;&gt;&lt;font style=&quot;font-size: 20px&quot;&gt;产品分类管理&lt;/font&gt;&lt;/span&gt;" style="text;html=1;align=center;verticalAlign=middle;resizable=0;points=[];autosize=1;strokeColor=none;fontSize=20;fontStyle=1;strokeWidth=2;" vertex="1" parent="1">
          <mxGeometry x="140" y="905" width="140" height="30" as="geometry" />
        </mxCell>
        <mxCell id="gzrYZWxSxminhEm58kiy-75" value="" style="rounded=1;whiteSpace=wrap;html=1;fontFamily=JetBrainsMono-Bold;strokeWidth=2;" vertex="1" parent="1">
          <mxGeometry x="100" y="1080" width="290" height="130" as="geometry" />
        </mxCell>
        <mxCell id="gzrYZWxSxminhEm58kiy-76" value="&lt;b&gt;&lt;font style=&quot;font-size: 18px&quot;&gt;设备绑定&lt;/font&gt;&lt;/b&gt;" style="rounded=1;whiteSpace=wrap;html=1;fontFamily=JetBrainsMono-Bold;strokeWidth=2;" vertex="1" parent="1">
          <mxGeometry x="260" y="1130" width="120" height="60" as="geometry" />
        </mxCell>
        <mxCell id="gzrYZWxSxminhEm58kiy-79" style="edgeStyle=orthogonalEdgeStyle;curved=0;rounded=1;sketch=0;orthogonalLoop=1;jettySize=auto;html=1;exitX=1;exitY=0.5;exitDx=0;exitDy=0;fontSize=16;strokeWidth=2;" edge="1" parent="1" source="gzrYZWxSxminhEm58kiy-77" target="gzrYZWxSxminhEm58kiy-76">
          <mxGeometry relative="1" as="geometry" />
        </mxCell>
        <mxCell id="gzrYZWxSxminhEm58kiy-77" value="&lt;span style=&quot;font-size: 18px&quot;&gt;&lt;b&gt;创建网关&lt;/b&gt;&lt;/span&gt;" style="rounded=1;whiteSpace=wrap;html=1;fontFamily=JetBrainsMono-Bold;strokeWidth=2;" vertex="1" parent="1">
          <mxGeometry x="110" y="1130" width="120" height="60" as="geometry" />
        </mxCell>
        <mxCell id="gzrYZWxSxminhEm58kiy-78" value="&lt;span style=&quot;font-size: 20px&quot;&gt;&lt;font style=&quot;font-size: 20px&quot;&gt;设备网关管理&lt;/font&gt;&lt;/span&gt;" style="text;html=1;align=center;verticalAlign=middle;resizable=0;points=[];autosize=1;strokeColor=none;fontSize=20;fontStyle=1;strokeWidth=2;" vertex="1" parent="1">
          <mxGeometry x="170" y="1085" width="140" height="30" as="geometry" />
        </mxCell>
        <mxCell id="gzrYZWxSxminhEm58kiy-97" style="edgeStyle=orthogonalEdgeStyle;curved=0;rounded=1;sketch=0;orthogonalLoop=1;jettySize=auto;html=1;exitX=1;exitY=0.5;exitDx=0;exitDy=0;entryX=0;entryY=0.5;entryDx=0;entryDy=0;fontSize=16;strokeWidth=2;" edge="1" parent="1" source="gzrYZWxSxminhEm58kiy-80" target="gzrYZWxSxminhEm58kiy-57">
          <mxGeometry relative="1" as="geometry" />
        </mxCell>
        <mxCell id="gzrYZWxSxminhEm58kiy-98" value="&lt;b&gt;&lt;font style=&quot;font-size: 17px&quot;&gt;1、开发协议包&lt;/font&gt;&lt;/b&gt;" style="edgeLabel;html=1;align=center;verticalAlign=middle;resizable=0;points=[];fontSize=16;" vertex="1" connectable="0" parent="gzrYZWxSxminhEm58kiy-97">
          <mxGeometry x="-0.3077" y="1" relative="1" as="geometry">
            <mxPoint x="16" y="1" as="offset" />
          </mxGeometry>
        </mxCell>
        <mxCell id="gzrYZWxSxminhEm58kiy-80" value="&lt;b&gt;&lt;font style=&quot;font-size: 19px&quot;&gt;开发人员&lt;/font&gt;&lt;/b&gt;" style="shape=image;html=1;verticalAlign=top;verticalLabelPosition=bottom;labelBackgroundColor=#ffffff;imageAspect=0;aspect=fixed;image=https://cdn0.iconfinder.com/data/icons/education-340/100/Tilda_Icons_1ed_group-128.png;rounded=0;sketch=0;fontSize=16;strokeWidth=2;" vertex="1" parent="1">
          <mxGeometry x="150" y="1379.75" width="98" height="98" as="geometry" />
        </mxCell>
        <mxCell id="gzrYZWxSxminhEm58kiy-85" style="edgeStyle=orthogonalEdgeStyle;curved=0;rounded=1;sketch=0;orthogonalLoop=1;jettySize=auto;html=1;exitX=1;exitY=0.5;exitDx=0;exitDy=0;fontSize=16;strokeWidth=2;" edge="1" parent="1" source="gzrYZWxSxminhEm58kiy-82" target="gzrYZWxSxminhEm58kiy-84">
          <mxGeometry relative="1" as="geometry" />
        </mxCell>
        <mxCell id="gzrYZWxSxminhEm58kiy-82" value="&lt;span style=&quot;font-size: 18px&quot;&gt;&lt;b&gt;上传协议包&lt;/b&gt;&lt;/span&gt;" style="rounded=1;whiteSpace=wrap;html=1;fontFamily=JetBrainsMono-Bold;strokeWidth=2;" vertex="1" parent="1">
          <mxGeometry x="905" y="1375" width="115" height="40" as="geometry" />
        </mxCell>
        <mxCell id="gzrYZWxSxminhEm58kiy-86" style="edgeStyle=orthogonalEdgeStyle;curved=0;rounded=1;sketch=0;orthogonalLoop=1;jettySize=auto;html=1;exitX=1;exitY=0.5;exitDx=0;exitDy=0;entryX=0;entryY=0.5;entryDx=0;entryDy=0;fontSize=16;strokeWidth=2;" edge="1" parent="1" source="gzrYZWxSxminhEm58kiy-83" target="gzrYZWxSxminhEm58kiy-84">
          <mxGeometry relative="1" as="geometry" />
        </mxCell>
        <mxCell id="gzrYZWxSxminhEm58kiy-83" value="&lt;span style=&quot;font-size: 18px&quot;&gt;&lt;b&gt;创建现有协议包&lt;/b&gt;&lt;/span&gt;" style="rounded=1;whiteSpace=wrap;html=1;fontFamily=JetBrainsMono-Bold;strokeWidth=2;" vertex="1" parent="1">
          <mxGeometry x="885" y="1430" width="135" height="40" as="geometry" />
        </mxCell>
        <mxCell id="gzrYZWxSxminhEm58kiy-89" style="edgeStyle=orthogonalEdgeStyle;curved=0;rounded=1;sketch=0;orthogonalLoop=1;jettySize=auto;html=1;exitX=0.5;exitY=1;exitDx=0;exitDy=0;fontSize=16;strokeWidth=2;" edge="1" parent="1" source="gzrYZWxSxminhEm58kiy-84" target="gzrYZWxSxminhEm58kiy-88">
          <mxGeometry relative="1" as="geometry" />
        </mxCell>
        <mxCell id="gzrYZWxSxminhEm58kiy-90" style="edgeStyle=orthogonalEdgeStyle;curved=0;rounded=1;sketch=0;orthogonalLoop=1;jettySize=auto;html=1;exitX=0.5;exitY=1;exitDx=0;exitDy=0;entryX=0.5;entryY=0;entryDx=0;entryDy=0;fontSize=16;strokeWidth=2;" edge="1" parent="1" source="gzrYZWxSxminhEm58kiy-84" target="gzrYZWxSxminhEm58kiy-12">
          <mxGeometry relative="1" as="geometry" />
        </mxCell>
        <mxCell id="gzrYZWxSxminhEm58kiy-84" value="&lt;b&gt;&lt;font style=&quot;font-size: 18px&quot;&gt;协议发布&lt;/font&gt;&lt;/b&gt;" style="rounded=1;whiteSpace=wrap;html=1;fontFamily=JetBrainsMono-Bold;strokeWidth=2;" vertex="1" parent="1">
          <mxGeometry x="1070" y="1390" width="120" height="60" as="geometry" />
        </mxCell>
        <mxCell id="gzrYZWxSxminhEm58kiy-88" value="&lt;b&gt;&lt;font style=&quot;font-size: 18px&quot;&gt;解码&lt;/font&gt;&lt;/b&gt;" style="rounded=1;whiteSpace=wrap;html=1;fontFamily=JetBrainsMono-Bold;strokeWidth=2;" vertex="1" parent="1">
          <mxGeometry x="1090" y="1502.5" width="80" height="48.75" as="geometry" />
        </mxCell>
        <mxCell id="gzrYZWxSxminhEm58kiy-101" value="" style="rhombus;whiteSpace=wrap;html=1;rounded=0;sketch=0;fontSize=16;strokeWidth=2;align=left;verticalAlign=top;fillColor=#fad9d5;strokeColor=#ae4132;" vertex="1" parent="1">
          <mxGeometry x="690" y="1245" width="120" height="75" as="geometry" />
        </mxCell>
        <mxCell id="gzrYZWxSxminhEm58kiy-102" value="&lt;font style=&quot;font-size: 18px&quot;&gt;&lt;b&gt;现有协议？&lt;/b&gt;&lt;/font&gt;" style="text;html=1;align=center;verticalAlign=middle;resizable=0;points=[];autosize=1;strokeColor=none;fontSize=16;" vertex="1" parent="1">
          <mxGeometry x="700" y="1272.5" width="110" height="20" as="geometry" />
        </mxCell>
      </root>
    </mxGraphModel>
  </diagram>
</mxfile>
